<?xml version="1.0" encoding="utf-8"?>
<svg viewBox="0 0 173.13 170.718" xmlns="http://www.w3.org/2000/svg">
  <defs/>
  <rect x="90" y="10" width="30" height="30" fill="#00ff00"/>
  <rect x="130" y="10" width="30" height="30" style="fill: rgb(237, 237, 237);"/>
  <rect x="90" y="50" width="30" height="30" style="fill: rgb(157, 157, 157);"/>
  <rect x="130" y="50" width="30" height="30" fill="#00ff00"/>
  <rect x="10" y="90" width="30" height="30" style="fill: rgb(157, 157, 157);"/>
  <rect x="50" y="90" width="30" height="30" fill="#00ff00"/>
  <rect x="90" y="90" width="30" height="30" style="fill: rgb(237, 237, 237);"/>
  <rect x="130" y="90" width="30" height="30" style="fill: rgb(157, 157, 157);"/>
  <rect x="10" y="130" width="30" height="30" fill="#00ff00"/>
  <rect x="50" y="130" width="30" height="30" style="fill: rgb(237, 237, 237);"/>
  <rect x="90" y="130" width="30" height="30" style="fill: rgb(0, 255, 0);"/>
  <rect x="130" y="130" width="30" height="30" style="fill: rgb(237, 237, 237);"/>
  <path d="M 72.702 26.926 C 56 26.926 42.46 40.467 42.32 56.584 L 42.46 76.66 C 42.46 77.667 43.326 78.464 44.31 78.393 C 62.864 77.433 77.599 62.112 77.599 43.324 L 77.599 26.926 L 72.702 26.926 Z" style="fill: rgb(0, 203, 91);"/>
  <path d="M 51.97 66.539 C 51.619 66.539 51.267 66.422 50.964 66.212 C 50.167 65.65 49.98 64.549 50.542 63.752 L 72.609 32.807 C 73.593 31.425 74.108 29.784 74.108 28.097 L 74.084 19.313 C 74.084 18.353 74.882 17.556 75.842 17.556 C 76.802 17.556 77.599 18.329 77.599 19.313 L 77.646 28.097 C 77.646 30.534 76.896 32.876 75.49 34.868 L 53.423 65.814 C 53.071 66.282 52.533 66.539 51.97 66.539 Z" style="fill: rgb(177, 88, 88);"/>
  <path d="M 41.336 12.871 C 30.652 12.964 21.681 21.983 21.681 33.041 L 21.681 36.274 L 32.527 36.274 C 44.967 36.274 55.134 26.341 55.766 14.089 C 55.813 13.41 55.274 12.847 54.617 12.847 L 41.336 12.871 Z" style="fill: rgb(237, 68, 68);"/>
  <path d="M 21.938 48.033 C 29.27 48.08 35.432 54.288 35.432 61.878 L 35.432 64.408 L 27.983 64.408 C 19.432 64.408 12.451 57.287 12.005 48.853 C 11.983 48.408 12.334 48.009 12.803 48.009 L 21.938 48.033 Z" style="fill: rgb(10, 200, 35);"/>
  <path d="M 47.684 18.633 C 47.824 18.844 47.895 19.078 47.895 19.313 C 47.895 19.688 47.731 20.039 47.402 20.274 L 26.928 34.868 C 25.617 35.805 24.071 36.297 22.453 36.297 L 17.862 36.297 C 17.206 36.297 16.691 35.757 16.691 35.125 C 16.691 34.493 17.206 33.977 17.862 33.977 L 22.453 33.977 C 23.578 33.977 24.656 33.626 25.57 32.97 L 46.068 18.353 C 46.583 17.977 47.309 18.118 47.684 18.633 Z" style="fill: rgb(0, 200, 184);"/>
  <path d="M 35.105 62.065 L 36.58 62.065 C 37.189 62.065 37.728 62.534 37.774 63.143 C 37.798 63.822 37.283 64.385 36.604 64.385 L 35.105 64.385 C 33.487 64.385 31.941 63.892 30.63 62.955 L 20.65 55.834 C 20.135 55.459 20.018 54.733 20.392 54.218 C 20.416 54.218 20.416 54.194 20.416 54.194 C 20.79 53.679 21.493 53.562 22.009 53.937 L 31.988 61.058 C 32.902 61.714 33.98 62.065 35.105 62.065 Z" style="fill: rgb(63, 63, 63);"/>
  <path d="M 110.94 93.2 Q 111.7 93.2 112.01 93.47 Q 112.33 93.75 112.33 94.4 L 112.33 98.67 Q 112.33 99.32 112.01 99.6 Q 111.7 99.88 110.94 99.88 Q 110.23 99.88 109.97 99.39 Q 109.08 97.7 107.47 96.82 Q 105.85 95.94 103.79 95.94 Q 101.75 95.94 100.63 96.89 Q 99.51 97.83 99.51 99.43 Q 99.51 100.19 99.9 100.71 Q 100.29 101.23 101.01 101.6 Q 101.66 101.93 102.53 102.15 Q 103.4 102.36 104.87 102.64 Q 106.47 102.96 107.4 103.17 Q 108.34 103.38 109.25 103.75 Q 111.11 104.51 112.15 105.88 Q 113.2 107.24 113.2 109.56 Q 113.2 111.49 112.29 112.95 Q 111.38 114.4 109.61 115.22 Q 107.84 116.04 105.35 116.04 Q 103.5 116.04 101.91 115.36 Q 100.32 114.68 99.16 113.38 L 99.16 114.83 Q 99.16 115.48 98.84 115.76 Q 98.52 116.04 97.76 116.04 Q 97 116.04 96.69 115.76 Q 96.37 115.48 96.37 114.83 L 96.37 109.26 Q 96.37 108.61 96.69 108.34 Q 97 108.06 97.76 108.06 Q 98.56 108.06 98.84 108.84 Q 99.6 110.99 101.26 112.14 Q 102.92 113.29 105.35 113.29 Q 107.73 113.29 109 112.27 Q 110.27 111.25 110.27 109.56 Q 110.27 108.39 109.69 107.66 Q 109.1 106.93 107.99 106.44 Q 107.28 106.13 106.45 105.93 Q 105.61 105.74 104.17 105.44 Q 102.64 105.14 101.61 104.88 Q 100.58 104.63 99.71 104.24 Q 98.23 103.57 97.4 102.43 Q 96.58 101.29 96.58 99.43 Q 96.58 97.52 97.5 96.11 Q 98.41 94.7 100.06 93.95 Q 101.7 93.2 103.79 93.2 Q 105.43 93.2 106.95 93.83 Q 108.47 94.46 109.55 95.53 L 109.55 94.4 Q 109.55 93.75 109.86 93.47 Q 110.18 93.2 110.94 93.2 Z"/>
  <path d="M 147.8 95 Q 150.1 95 151.92 96.08 Q 153.73 97.17 154.77 99.2 Q 155.81 101.23 155.81 103.98 Q 155.81 106.72 154.77 108.76 Q 153.73 110.79 151.92 111.87 Q 150.1 112.96 147.8 112.96 Q 144.31 112.96 141.92 109.9 L 141.92 117.23 L 145.11 117.23 Q 145.74 117.23 146.01 117.51 Q 146.28 117.8 146.28 118.49 Q 146.28 119.18 146.01 119.46 Q 145.74 119.75 145.11 119.75 L 137.24 119.75 Q 136.61 119.75 136.34 119.46 Q 136.07 119.18 136.07 118.49 Q 136.07 117.8 136.34 117.51 Q 136.61 117.23 137.24 117.23 L 139.13 117.23 L 139.13 97.93 L 137.61 97.93 Q 136.98 97.93 136.71 97.64 Q 136.44 97.35 136.44 96.67 Q 136.44 95.98 136.71 95.69 Q 136.98 95.41 137.61 95.41 L 140.56 95.41 Q 141.19 95.41 141.46 95.69 Q 141.73 95.98 141.73 96.67 L 141.73 98.15 Q 142.9 96.63 144.44 95.81 Q 145.98 95 147.8 95 Z M 147.61 97.74 Q 145.96 97.74 144.67 98.49 Q 143.38 99.23 142.65 100.64 Q 141.92 102.05 141.92 103.98 Q 141.92 105.91 142.65 107.32 Q 143.38 108.73 144.67 109.47 Q 145.96 110.21 147.61 110.21 Q 149.26 110.21 150.45 109.42 Q 151.64 108.64 152.26 107.23 Q 152.88 105.82 152.88 103.98 Q 152.88 102.14 152.26 100.73 Q 151.64 99.32 150.45 98.53 Q 149.26 97.74 147.61 97.74 Z"/>
  <path d="M 114.39 134.35 Q 115.02 134.35 115.29 134.64 Q 115.56 134.93 115.56 135.62 Q 115.56 136.3 115.29 136.59 Q 115.02 136.88 114.39 136.88 L 113.46 136.88 L 113.95 153.86 L 114.95 153.86 Q 115.58 153.86 115.85 154.14 Q 116.12 154.43 116.12 155.12 Q 116.12 155.8 115.85 156.09 Q 115.58 156.38 114.95 156.38 L 109.12 156.38 Q 108.49 156.38 108.22 156.09 Q 107.95 155.8 107.95 155.12 Q 107.95 154.43 108.22 154.14 Q 108.49 153.86 109.12 153.86 L 111.18 153.86 L 110.77 138.66 L 106.99 149.24 Q 106.75 149.88 106.35 150.16 Q 105.95 150.44 105.28 150.44 Q 104.61 150.44 104.21 150.16 Q 103.81 149.88 103.57 149.24 L 99.77 138.66 L 99.38 153.86 L 101.44 153.86 Q 102.07 153.86 102.34 154.14 Q 102.61 154.43 102.61 155.12 Q 102.61 155.8 102.34 156.09 Q 102.07 156.38 101.44 156.38 L 95.61 156.38 Q 94.98 156.38 94.71 156.09 Q 94.44 155.8 94.44 155.12 Q 94.44 154.43 94.71 154.14 Q 94.98 153.86 95.61 153.86 L 96.62 153.86 L 97.08 136.88 L 96.17 136.88 Q 95.54 136.88 95.27 136.59 Q 95 136.3 95 135.62 Q 95 134.93 95.27 134.64 Q 95.54 134.35 96.17 134.35 L 100.09 134.35 Q 100.53 134.35 100.79 134.5 Q 101.05 134.65 101.16 134.97 L 105.28 146.27 L 109.38 134.97 Q 109.59 134.35 110.48 134.35 L 114.39 134.35 Z"/>
  <path d="M 154.3 134.34 Q 154.94 134.34 155.2 134.62 Q 155.47 134.91 155.47 135.6 Q 155.47 136.28 155.2 136.57 Q 154.94 136.86 154.3 136.86 L 152.88 136.86 L 146.21 155.56 Q 145.97 156.21 145.5 156.49 Q 145.03 156.77 144.21 156.77 Q 143.41 156.77 142.94 156.48 Q 142.47 156.19 142.24 155.56 L 135.64 136.86 L 134.23 136.86 Q 133.6 136.86 133.33 136.57 Q 133.06 136.28 133.06 135.6 Q 133.06 134.91 133.33 134.62 Q 133.6 134.34 134.23 134.34 L 141.17 134.34 Q 141.8 134.34 142.07 134.62 Q 142.34 134.91 142.34 135.6 Q 142.34 136.28 142.07 136.57 Q 141.8 136.86 141.17 136.86 L 138.55 136.86 L 144.23 153.26 L 149.96 136.86 L 148.11 136.86 Q 147.48 136.86 147.21 136.57 Q 146.94 136.28 146.94 135.6 Q 146.94 134.91 147.21 134.62 Q 147.48 134.34 148.11 134.34 L 154.3 134.34 Z"/>
</svg>