<?xml version="1.0" encoding="utf-8"?>
<svg viewBox="0 0 173.13 170.718" xmlns="http://www.w3.org/2000/svg">
  <rect x="90" y="10" width="30" height="30" fill="#00ff00"/>
  <rect x="130" y="10" width="30" height="30" style="fill: rgb(237, 237, 237);"/>
  <rect x="90" y="50" width="30" height="30" style="fill: rgb(157, 157, 157);"/>
  <rect x="130" y="50" width="30" height="30" fill="#00ff00"/>
  <rect x="10" y="90" width="30" height="30" style="fill: rgb(157, 157, 157);"/>
  <rect x="50" y="90" width="30" height="30" fill="#00ff00"/>
  <rect x="90" y="90" width="30" height="30" style="fill: rgb(237, 237, 237);"/>
  <rect x="130" y="90" width="30" height="30" style="fill: rgb(157, 157, 157);"/>
  <rect x="10" y="130" width="30" height="30" fill="#00ff00"/>
  <rect x="50" y="130" width="30" height="30" style="fill: rgb(237, 237, 237);"/>
  <rect x="90" y="130" width="30" height="30" style="fill: rgb(0, 255, 0);"/>
  <rect x="130" y="130" width="30" height="30" style="fill: rgb(237, 237, 237);"/>
  <path d="M 72.702 26.926 C 56 26.926 42.46 40.467 42.32 56.584 L 42.46 76.66 C 42.46 77.667 43.326 78.464 44.31 78.393 C 62.864 77.433 77.599 62.112 77.599 43.324 L 77.599 26.926 L 72.702 26.926 Z" style="fill: rgb(0, 203, 91);"/>
  <path d="M 51.97 66.539 C 51.619 66.539 51.267 66.422 50.964 66.212 C 50.167 65.65 49.98 64.549 50.542 63.752 L 72.609 32.807 C 73.593 31.425 74.108 29.784 74.108 28.097 L 74.084 19.313 C 74.084 18.353 74.882 17.556 75.842 17.556 C 76.802 17.556 77.599 18.329 77.599 19.313 L 77.646 28.097 C 77.646 30.534 76.896 32.876 75.49 34.868 L 53.423 65.814 C 53.071 66.282 52.533 66.539 51.97 66.539 Z" style="fill: rgb(177, 88, 88);"/>
  <path d="M 41.336 12.871 C 30.652 12.964 21.681 21.983 21.681 33.041 L 21.681 36.274 L 32.527 36.274 C 44.967 36.274 55.134 26.341 55.766 14.089 C 55.813 13.41 55.274 12.847 54.617 12.847 L 41.336 12.871 Z" style="fill: rgb(237, 68, 68);"/>
  <path d="M 21.938 48.033 C 29.27 48.08 35.432 54.288 35.432 61.878 L 35.432 64.408 L 27.983 64.408 C 19.432 64.408 12.451 57.287 12.005 48.853 C 11.983 48.408 12.334 48.009 12.803 48.009 L 21.938 48.033 Z" style="fill: rgb(10, 200, 35);"/>
  <path d="M 47.684 18.633 C 47.824 18.844 47.895 19.078 47.895 19.313 C 47.895 19.688 47.731 20.039 47.402 20.274 L 26.928 34.868 C 25.617 35.805 24.071 36.297 22.453 36.297 L 17.862 36.297 C 17.206 36.297 16.691 35.757 16.691 35.125 C 16.691 34.493 17.206 33.977 17.862 33.977 L 22.453 33.977 C 23.578 33.977 24.656 33.626 25.57 32.97 L 46.068 18.353 C 46.583 17.977 47.309 18.118 47.684 18.633 Z" style="fill: rgb(0, 200, 184);"/>
  <path d="M 35.105 62.065 L 36.58 62.065 C 37.189 62.065 37.728 62.534 37.774 63.143 C 37.798 63.822 37.283 64.385 36.604 64.385 L 35.105 64.385 C 33.487 64.385 31.941 63.892 30.63 62.955 L 20.65 55.834 C 20.135 55.459 20.018 54.733 20.392 54.218 C 20.416 54.218 20.416 54.194 20.416 54.194 C 20.79 53.679 21.493 53.562 22.009 53.937 L 31.988 61.058 C 32.902 61.714 33.98 62.065 35.105 62.065 Z" style="fill: rgb(63, 63, 63);"/>
</svg>